<svg width="49" height="49" viewBox="0 0 49 49" fill="none" xmlns="http://www.w3.org/2000/svg">
<path fill-rule="evenodd" clip-rule="evenodd" d="M22.1381 14.173L24.4777 2.25921e-05L29.7929 0.877414L27.6138 14.078L37.7007 3L41.684 6.6269L32.2126 17.029L46.1789 14L47.3207 19.2647L33.9135 22.1725L48.2667 24.9143L47.2559 30.2057L34.6546 27.7985L44.6363 38.2133L40.747 41.9409L31.5687 32.3644L35.1575 46.0218L29.9473 47.3909L26.415 33.9485L23.2621 48.3252L18 47.1712L20.8282 34.2751L10.4586 44.5463L6.66757 40.7189L15.4122 32.0573L2.12242 34.8884L1 29.6195L14.3278 26.7803L-4.76093e-06 23.2288L1.2961 18L13.7906 21.0971L3.10825 10.7481L6.85666 6.87892L16.7387 16.4525L13 2.38355L18.2064 0.999995L21.7298 14.2588C17.3006 15.2869 14 19.258 14 24C14 29.5228 18.4772 34 24 34C29.5228 34 34 29.5228 34 24C34 18.4772 29.5228 14 24 14C23.3638 14 22.7414 14.0594 22.1381 14.173Z" fill="#004442"/>
</svg>
